# xmcd CD database file
#
# Track frame offsets:
#	150
#	10355
#	20560
#	34295
#	47557
#	60980
#	72830
#	85455
#	98710
#	115132
#	127020
#	140942
#	151410
#	161372
#	175660
#	190360
#
# Disc length: 2713 seconds
#
# Revision: 1
# Processed by: cddbd v1.5.2PL0 Copyright (c) Steve Scherf et al.
# Submitted via: CDex 1.51
#
DISCID=d90a9710
DTITLE=The Country All Stars - It's Country Time - 2/2
DYEAR=1988
DGENRE=Country
TTITLE0=The Yellow Rose Of Texas
TTITLE1=Carry Me Back To Old Virginia
TTITLE2=Play Me A Love Song Tonight
TTITLE3=I May Fall Again For Somebody New
TTITLE4=It's Country Time
TTITLE5=How Come It Took So Long
TTITLE6=My Sunny Overgrown Country Town
TTITLE7=Home, Home On The Range
TTITLE8=Amazing Grace
TTITLE9=Oh Susanna
TTITLE10=Counterfeit Cowboy
TTITLE11=Country Candlelight
TTITLE12=My Darling Clementine
TTITLE13=All I Want Is You To Need Me Too
TTITLE14=A Game I Can't Afford To Lose
TTITLE15=Leaving On A Dreamboat
EXTD=Delta-Music GmbH, 1988 YEAR: 1988
EXTT0=
EXTT1=
EXTT2=
EXTT3=
EXTT4=
EXTT5=
EXTT6=
EXTT7=
EXTT8=
EXTT9=
EXTT10=
EXTT11=
EXTT12=
EXTT13=
EXTT14=
EXTT15=
PLAYORDER=
